<svg width="171" height="160" viewBox="0 0 171 160" fill="none" xmlns="http://www.w3.org/2000/svg">
<rect x="0.148682" y="9" width="140" height="140" rx="70" fill="#DB574D"/>
<path d="M47.861 74L50.525 66.152L51.371 63.344H51.497L52.451 66.152L55.385 74H57.293L60.407 61.94H59.003L56.897 70.256L56.339 72.722H56.249L55.439 70.256L52.343 61.94H50.543L47.735 70.256L47.015 72.722H46.907L46.277 70.256L43.883 61.94H42.461L45.953 74H47.861ZM67.4319 74.18C71.0499 74.18 73.5519 71.732 73.5519 67.97C73.5519 64.208 71.0499 61.76 67.4319 61.76C63.8499 61.76 61.3479 64.208 61.3479 67.97C61.3479 71.732 63.8499 74.18 67.4319 74.18ZM67.4319 72.938C64.3899 72.938 62.6979 71.246 62.6979 67.97C62.6979 64.694 64.3899 63.002 67.4319 63.002C70.4919 63.002 72.2019 64.694 72.2019 67.97C72.2019 71.246 70.4919 72.938 67.4319 72.938ZM76.5408 74V69.068H79.1328C80.7348 69.068 81.3648 69.5 81.9768 70.508L84.1188 74H85.5948L83.3268 70.31C82.9128 69.608 82.4628 69.086 81.6708 68.87V68.78C83.9028 68.726 85.3968 67.466 85.3968 65.432C85.3968 63.218 83.6868 61.94 81.1668 61.94H75.2628V74H76.5408ZM76.5408 63.11H81.1488C83.0568 63.11 84.0648 63.866 84.0648 65.576C84.0648 67.286 83.0568 68.042 81.1488 68.042H76.5408V63.11ZM88.3533 74V68.618H92.5833L96.3633 74H97.8933L93.6453 67.898L97.8753 61.94H96.3453L92.5473 67.376H88.3533V61.94H87.0753V74H88.3533ZM37.7272 96L40.3912 88.152L41.2372 85.344H41.3632L42.3172 88.152L45.2512 96H47.1592L50.2732 83.94H48.8692L46.7632 92.256L46.2052 94.722H46.1152L45.3052 92.256L42.2092 83.94H40.4092L37.6012 92.256L36.8812 94.722H36.7732L36.1432 92.256L33.7492 83.94H32.3272L35.8192 96H37.7272ZM52.9422 96V83.94H51.6642V96H52.9422ZM60.4559 96V85.11H65.4059V83.94H54.2099V85.11H59.1779V96H60.4559ZM67.9539 96V90.51H75.7119V96H76.9899V83.94H75.7119V89.34H67.9539V83.94H66.6759V96H67.9539ZM83.739 96V87.504L83.703 85.884H83.793L84.567 87.504L88.581 95.28H90.129L94.143 87.504L94.899 85.884H95.007L94.971 87.504V96H96.249V83.94H94.485L90.453 91.806L89.409 94.038H89.319L88.257 91.806L84.207 83.94H82.461V96H83.739ZM107.549 96V94.83H99.6648V90.51H107.279V89.358H99.6648V85.11H107.549V83.94H98.3868V96H107.549Z" fill="white"/>
<path d="M169.77 80C169.77 123.906 134.152 159.5 90.2129 159.5C46.2744 159.5 10.6558 123.906 10.6558 80C10.6558 36.0937 46.2744 0.5 90.2129 0.5C134.152 0.5 169.77 36.0937 169.77 80Z" stroke="#DB574D"/>
</svg>
